<svg width="287" height="90" viewBox="0 0 287 90" fill="none" xmlns="http://www.w3.org/2000/svg">
<g clip-path="url(#clip0_42_319)">
<path d="M258.731 15.0037C258.731 18.2568 260.023 21.3766 262.323 23.6768C264.623 25.977 267.743 27.2693 270.996 27.2693C274.249 27.2693 277.369 25.977 279.669 23.6768C281.97 21.3766 283.262 18.2568 283.262 15.0037C283.262 11.7507 281.97 8.63093 279.669 6.33069C277.369 4.03045 274.249 2.73819 270.996 2.73819C267.743 2.73819 264.623 4.03045 262.323 6.33069C260.023 8.63093 258.731 11.7507 258.731 15.0037Z" fill="#178E3B"/>
<path d="M270.996 29.9999C267.536 29.9977 264.184 28.7997 261.506 26.6089C258.829 24.418 256.991 21.369 256.304 17.9782C255.617 14.5875 256.123 11.0635 257.737 8.00329C259.351 4.94307 261.973 2.53474 265.159 1.18626C268.823 -0.361947 272.953 -0.390964 276.639 1.10559C280.325 2.60214 283.266 5.50168 284.814 9.16632C286.362 12.831 286.391 16.9605 284.894 20.6466C283.398 24.3326 280.498 27.2732 276.834 28.8214C274.987 29.6029 273.001 30.0038 270.996 29.9999ZM270.996 1.58823C263.599 1.58823 257.581 7.60622 257.581 15.0036C257.581 22.4011 263.599 28.4191 270.996 28.4191C278.393 28.4191 284.411 22.4022 284.411 15.0036C284.411 7.60509 278.395 1.58823 270.996 1.58823Z" fill="#203529"/>
<path d="M270.996 27.6645C268.492 27.6644 266.044 26.9218 263.963 25.5306C261.881 24.1395 260.258 22.1622 259.3 19.8488C258.341 17.5354 258.091 14.9898 258.579 12.5339C259.068 10.078 260.273 7.82214 262.044 6.0515C264.421 3.69144 267.637 2.36973 270.987 2.37583C274.337 2.38193 277.548 3.71536 279.916 6.08406C282.285 8.45276 283.618 11.6637 283.625 15.0135C283.631 18.3633 282.309 21.5791 279.949 23.9564C278.776 25.1358 277.381 26.0707 275.844 26.7072C274.307 27.3437 272.66 27.6691 270.996 27.6645ZM270.996 3.13378C264.451 3.13378 259.126 8.45884 259.126 15.0041C259.126 21.5494 264.451 26.8741 270.996 26.8741C277.542 26.8741 282.867 21.5491 282.867 15.0038C282.867 8.45847 277.542 3.13378 270.996 3.13378Z" fill="#203529"/>
<path d="M273.251 21.0379H268.855C268.75 21.0379 268.65 20.9963 268.576 20.9222C268.502 20.8481 268.46 20.7475 268.46 20.6427V9.36517C268.46 9.26036 268.502 9.15984 268.576 9.08572C268.65 9.01161 268.75 8.96997 268.855 8.96997H273.251C273.356 8.96997 273.456 9.01161 273.53 9.08572C273.605 9.15984 273.646 9.26036 273.646 9.36517C273.646 9.46999 273.605 9.57051 273.53 9.64462C273.456 9.71874 273.356 9.76037 273.251 9.76037H269.249V20.2475H273.251C273.356 20.2476 273.456 20.2892 273.53 20.3633C273.604 20.4374 273.646 20.5379 273.646 20.6427C273.646 20.7475 273.604 20.848 273.53 20.9221C273.456 20.9963 273.356 21.0379 273.251 21.0379ZM279.085 21.0379H274.689C274.584 21.0379 274.483 20.9963 274.409 20.9222C274.335 20.8481 274.294 20.7475 274.294 20.6427V9.36517C274.294 9.26036 274.335 9.15984 274.409 9.08572C274.483 9.01161 274.584 8.96997 274.689 8.96997H279.085C279.189 8.96997 279.29 9.01161 279.364 9.08572C279.438 9.15984 279.48 9.26036 279.48 9.36517V20.6427C279.48 20.7475 279.438 20.8481 279.364 20.9222C279.29 20.9963 279.189 21.0379 279.085 21.0379ZM275.083 20.2475H278.688V9.76037H275.083V20.2475ZM267.303 21.0379H262.908C262.803 21.0379 262.702 20.9963 262.628 20.9222C262.554 20.8481 262.512 20.7475 262.512 20.6427V9.36517C262.512 9.26036 262.554 9.15984 262.628 9.08572C262.702 9.01161 262.803 8.96997 262.908 8.96997H267.303C267.408 8.96997 267.509 9.01161 267.583 9.08572C267.657 9.15984 267.699 9.26036 267.699 9.36517C267.699 9.46999 267.657 9.57051 267.583 9.64462C267.509 9.71874 267.408 9.76037 267.303 9.76037H263.302V20.2475H267.303C267.408 20.2476 267.509 20.2892 267.583 20.3633C267.657 20.4374 267.699 20.5379 267.699 20.6427C267.699 20.7475 267.657 20.848 267.583 20.9221C267.509 20.9963 267.408 21.0379 267.303 21.0379Z" fill="#203529"/>
<path d="M267.531 15.399H263.135C263.083 15.399 263.032 15.3888 262.984 15.3689C262.936 15.349 262.892 15.3199 262.856 15.2832C262.819 15.2465 262.79 15.203 262.77 15.155C262.75 15.1071 262.74 15.0557 262.74 15.0038C262.74 14.9518 262.75 14.9004 262.77 14.8525C262.79 14.8045 262.819 14.761 262.856 14.7243C262.892 14.6876 262.936 14.6585 262.984 14.6386C263.032 14.6187 263.083 14.6085 263.135 14.6086H267.531C267.636 14.6086 267.736 14.6502 267.81 14.7243C267.884 14.7985 267.926 14.899 267.926 15.0038C267.926 15.1085 267.884 15.2091 267.81 15.2832C267.736 15.3573 267.636 15.3989 267.531 15.399Z" fill="#203529"/>
</g>
<g filter="url(#filter0_d_42_319)">
<mask id="path-6-outside-1_42_319" maskUnits="userSpaceOnUse" x="6" y="26" width="244" height="56" fill="black">
<rect fill="white" x="6" y="26" width="244" height="56"/>
<path d="M7.58789 27.5771H53.0811V37.0791H18.4229V47.7432H49.1162V56.6641H18.4229V71.5322H53.7988V81H7.58789V27.5771ZM65.8301 27.5771H111.323V37.0791H76.665V47.7432H107.358V56.6641H76.665V71.5322H112.041V81H65.8301V27.5771ZM124.072 27.5771H152.612C156.099 27.5771 159.129 27.9531 161.704 28.7051C164.302 29.4342 166.455 30.4482 168.164 31.7471C169.873 33.0459 171.138 34.5954 171.958 36.3955C172.801 38.1729 173.223 40.0983 173.223 42.1719C173.223 45.5671 172.152 48.5407 170.01 51.0928C172.471 52.5511 174.305 54.4424 175.513 56.7666C176.72 59.0908 177.324 61.734 177.324 64.6963C177.324 67.18 176.903 69.4245 176.06 71.4297C175.239 73.4349 173.975 75.1553 172.266 76.5908C170.579 78.0036 168.438 79.0973 165.84 79.8721C163.265 80.624 160.223 81 156.714 81H124.072V27.5771ZM156.782 48.085C157.716 48.085 158.628 48.1191 159.517 48.1875C161.043 46.7292 161.807 45.0658 161.807 43.1973C161.807 41.2604 161.043 39.7679 159.517 38.7197C158.013 37.6488 155.802 37.1133 152.886 37.1133H134.907V48.085H156.782ZM156.987 71.5664C159.904 71.5664 162.114 70.9398 163.618 69.6865C165.145 68.4333 165.908 66.6673 165.908 64.3887C165.908 62.11 165.145 60.3327 163.618 59.0566C162.114 57.7806 159.904 57.1426 156.987 57.1426H134.907V71.5664H156.987ZM188.364 27.5771H199.199L218.613 47.0596L238.027 27.5771H248.862V81H238.027V42.582L218.613 61.2783L199.199 42.582V81H188.364V27.5771Z"/>
</mask>
<path d="M7.58789 27.5771H53.0811V37.0791H18.4229V47.7432H49.1162V56.6641H18.4229V71.5322H53.7988V81H7.58789V27.5771ZM65.8301 27.5771H111.323V37.0791H76.665V47.7432H107.358V56.6641H76.665V71.5322H112.041V81H65.8301V27.5771ZM124.072 27.5771H152.612C156.099 27.5771 159.129 27.9531 161.704 28.7051C164.302 29.4342 166.455 30.4482 168.164 31.7471C169.873 33.0459 171.138 34.5954 171.958 36.3955C172.801 38.1729 173.223 40.0983 173.223 42.1719C173.223 45.5671 172.152 48.5407 170.01 51.0928C172.471 52.5511 174.305 54.4424 175.513 56.7666C176.72 59.0908 177.324 61.734 177.324 64.6963C177.324 67.18 176.903 69.4245 176.06 71.4297C175.239 73.4349 173.975 75.1553 172.266 76.5908C170.579 78.0036 168.438 79.0973 165.84 79.8721C163.265 80.624 160.223 81 156.714 81H124.072V27.5771ZM156.782 48.085C157.716 48.085 158.628 48.1191 159.517 48.1875C161.043 46.7292 161.807 45.0658 161.807 43.1973C161.807 41.2604 161.043 39.7679 159.517 38.7197C158.013 37.6488 155.802 37.1133 152.886 37.1133H134.907V48.085H156.782ZM156.987 71.5664C159.904 71.5664 162.114 70.9398 163.618 69.6865C165.145 68.4333 165.908 66.6673 165.908 64.3887C165.908 62.11 165.145 60.3327 163.618 59.0566C162.114 57.7806 159.904 57.1426 156.987 57.1426H134.907V71.5664H156.987ZM188.364 27.5771H199.199L218.613 47.0596L238.027 27.5771H248.862V81H238.027V42.582L218.613 61.2783L199.199 42.582V81H188.364V27.5771Z" fill="#119C59"/>
<path d="M7.58789 27.5771V26.5771H6.58789V27.5771H7.58789ZM53.0811 27.5771H54.0811V26.5771H53.0811V27.5771ZM53.0811 37.0791V38.0791H54.0811V37.0791H53.0811ZM18.4229 37.0791V36.0791H17.4229V37.0791H18.4229ZM18.4229 47.7432H17.4229V48.7432H18.4229V47.7432ZM49.1162 47.7432H50.1162V46.7432H49.1162V47.7432ZM49.1162 56.6641V57.6641H50.1162V56.6641H49.1162ZM18.4229 56.6641V55.6641H17.4229V56.6641H18.4229ZM18.4229 71.5322H17.4229V72.5322H18.4229V71.5322ZM53.7988 71.5322H54.7988V70.5322H53.7988V71.5322ZM53.7988 81V82H54.7988V81H53.7988ZM7.58789 81H6.58789V82H7.58789V81ZM7.58789 27.5771V28.5771H53.0811V27.5771V26.5771H7.58789V27.5771ZM53.0811 27.5771H52.0811V37.0791H53.0811H54.0811V27.5771H53.0811ZM53.0811 37.0791V36.0791H18.4229V37.0791V38.0791H53.0811V37.0791ZM18.4229 37.0791H17.4229V47.7432H18.4229H19.4229V37.0791H18.4229ZM18.4229 47.7432V48.7432H49.1162V47.7432V46.7432H18.4229V47.7432ZM49.1162 47.7432H48.1162V56.6641H49.1162H50.1162V47.7432H49.1162ZM49.1162 56.6641V55.6641H18.4229V56.6641V57.6641H49.1162V56.6641ZM18.4229 56.6641H17.4229V71.5322H18.4229H19.4229V56.6641H18.4229ZM18.4229 71.5322V72.5322H53.7988V71.5322V70.5322H18.4229V71.5322ZM53.7988 71.5322H52.7988V81H53.7988H54.7988V71.5322H53.7988ZM53.7988 81V80H7.58789V81V82H53.7988V81ZM7.58789 81H8.58789V27.5771H7.58789H6.58789V81H7.58789ZM65.8301 27.5771V26.5771H64.8301V27.5771H65.8301ZM111.323 27.5771H112.323V26.5771H111.323V27.5771ZM111.323 37.0791V38.0791H112.323V37.0791H111.323ZM76.665 37.0791V36.0791H75.665V37.0791H76.665ZM76.665 47.7432H75.665V48.7432H76.665V47.7432ZM107.358 47.7432H108.358V46.7432H107.358V47.7432ZM107.358 56.6641V57.6641H108.358V56.6641H107.358ZM76.665 56.6641V55.6641H75.665V56.6641H76.665ZM76.665 71.5322H75.665V72.5322H76.665V71.5322ZM112.041 71.5322H113.041V70.5322H112.041V71.5322ZM112.041 81V82H113.041V81H112.041ZM65.8301 81H64.8301V82H65.8301V81ZM65.8301 27.5771V28.5771H111.323V27.5771V26.5771H65.8301V27.5771ZM111.323 27.5771H110.323V37.0791H111.323H112.323V27.5771H111.323ZM111.323 37.0791V36.0791H76.665V37.0791V38.0791H111.323V37.0791ZM76.665 37.0791H75.665V47.7432H76.665H77.665V37.0791H76.665ZM76.665 47.7432V48.7432H107.358V47.7432V46.7432H76.665V47.7432ZM107.358 47.7432H106.358V56.6641H107.358H108.358V47.7432H107.358ZM107.358 56.6641V55.6641H76.665V56.6641V57.6641H107.358V56.6641ZM76.665 56.6641H75.665V71.5322H76.665H77.665V56.6641H76.665ZM76.665 71.5322V72.5322H112.041V71.5322V70.5322H76.665V71.5322ZM112.041 71.5322H111.041V81H112.041H113.041V71.5322H112.041ZM112.041 81V80H65.8301V81V82H112.041V81ZM65.8301 81H66.8301V27.5771H65.8301H64.8301V81H65.8301ZM124.072 27.5771V26.5771H123.072V27.5771H124.072ZM161.704 28.7051L161.424 29.665L161.434 29.6679L161.704 28.7051ZM171.958 36.3955L171.048 36.8102L171.051 36.8172L171.055 36.8241L171.958 36.3955ZM170.01 51.0928L169.244 50.4499L168.486 51.3524L169.5 51.9531L170.01 51.0928ZM176.06 71.4297L175.138 71.0421L175.134 71.0511L176.06 71.4297ZM172.266 76.5908L172.908 77.3573L172.909 77.3565L172.266 76.5908ZM165.84 79.8721L166.12 80.832L166.126 80.8304L165.84 79.8721ZM124.072 81H123.072V82H124.072V81ZM159.517 48.1875L159.44 49.1846L159.885 49.2188L160.207 48.9106L159.517 48.1875ZM159.517 38.7197L158.937 39.5343L158.944 39.5393L158.951 39.5441L159.517 38.7197ZM134.907 37.1133V36.1133H133.907V37.1133H134.907ZM134.907 48.085H133.907V49.085H134.907V48.085ZM163.618 69.6865L162.984 68.9136L162.978 68.9183L163.618 69.6865ZM163.618 59.0566L162.971 59.8192L162.977 59.8239L163.618 59.0566ZM134.907 57.1426V56.1426H133.907V57.1426H134.907ZM134.907 71.5664H133.907V72.5664H134.907V71.5664ZM124.072 27.5771V28.5771H152.612V27.5771V26.5771H124.072V27.5771ZM152.612 27.5771V28.5771C156.03 28.5771 158.962 28.9462 161.424 29.665L161.704 28.7051L161.984 27.7452C159.296 26.96 156.167 26.5771 152.612 26.5771V27.5771ZM161.704 28.7051L161.434 29.6679C163.94 30.3714 165.972 31.3373 167.559 32.5432L168.164 31.7471L168.769 30.9509C166.938 29.5592 164.663 28.497 161.974 27.7423L161.704 28.7051ZM168.164 31.7471L167.559 32.5432C169.148 33.7508 170.302 35.173 171.048 36.8102L171.958 36.3955L172.868 35.9808C171.973 34.0177 170.598 32.341 168.769 30.9509L168.164 31.7471ZM171.958 36.3955L171.055 36.8241C171.831 38.4603 172.223 40.2383 172.223 42.1719H173.223H174.223C174.223 39.9583 173.772 37.8854 172.862 35.9669L171.958 36.3955ZM173.223 42.1719H172.223C172.223 45.3368 171.231 48.0816 169.244 50.4499L170.01 51.0928L170.776 51.7356C173.072 48.9997 174.223 45.7973 174.223 42.1719H173.223ZM170.01 51.0928L169.5 51.9531C171.816 53.3253 173.512 55.0843 174.625 57.2277L175.513 56.7666L176.4 56.3055C175.098 53.8004 173.126 51.7769 170.52 50.2325L170.01 51.0928ZM175.513 56.7666L174.625 57.2277C175.75 59.3918 176.324 61.8733 176.324 64.6963H177.324H178.324C178.324 61.5948 177.691 58.7899 176.4 56.3055L175.513 56.7666ZM177.324 64.6963H176.324C176.324 67.0657 175.922 69.1758 175.138 71.0421L176.06 71.4297L176.981 71.8173C177.883 69.6732 178.324 67.2944 178.324 64.6963H177.324ZM176.06 71.4297L175.134 71.0511C174.377 72.9016 173.211 74.4905 171.622 75.8251L172.266 76.5908L172.909 77.3565C174.738 75.82 176.102 73.9682 176.985 71.8083L176.06 71.4297ZM172.266 76.5908L171.623 75.8243C170.063 77.1317 168.051 78.1692 165.554 78.9138L165.84 79.8721L166.126 80.8304C168.824 80.0255 171.096 78.8755 172.908 77.3573L172.266 76.5908ZM165.84 79.8721L165.56 78.9122C163.099 79.6308 160.156 80 156.714 80V81V82C160.29 82 163.431 81.6173 166.12 80.832L165.84 79.8721ZM156.714 81V80H124.072V81V82H156.714V81ZM124.072 81H125.072V27.5771H124.072H123.072V81H124.072ZM156.782 48.085V49.085C157.692 49.085 158.578 49.1182 159.44 49.1846L159.517 48.1875L159.593 47.1904C158.678 47.12 157.741 47.085 156.782 47.085V48.085ZM159.517 48.1875L160.207 48.9106C161.903 47.2905 162.807 45.3756 162.807 43.1973H161.807H160.807C160.807 44.7559 160.183 46.1678 158.826 47.4644L159.517 48.1875ZM161.807 43.1973H162.807C162.807 40.9489 161.895 39.14 160.083 37.8953L159.517 38.7197L158.951 39.5441C160.191 40.3958 160.807 41.5719 160.807 43.1973H161.807ZM159.517 38.7197L160.097 37.9052C158.351 36.6619 155.899 36.1133 152.886 36.1133V37.1133V38.1133C155.706 38.1133 157.675 38.6356 158.937 39.5343L159.517 38.7197ZM152.886 37.1133V36.1133H134.907V37.1133V38.1133H152.886V37.1133ZM134.907 37.1133H133.907V48.085H134.907H135.907V37.1133H134.907ZM134.907 48.085V49.085H156.782V48.085V47.085H134.907V48.085ZM156.987 71.5664V72.5664C160.027 72.5664 162.505 71.9159 164.258 70.4547L163.618 69.6865L162.978 68.9183C161.724 69.9636 159.781 70.5664 156.987 70.5664V71.5664ZM163.618 69.6865L164.253 70.4595C166.048 68.9858 166.908 66.9152 166.908 64.3887H165.908H164.908C164.908 66.4194 164.242 67.8807 162.984 68.9136L163.618 69.6865ZM165.908 64.3887H166.908C166.908 61.8619 166.048 59.7842 164.259 58.2894L163.618 59.0566L162.977 59.8239C164.242 60.8811 164.908 62.3582 164.908 64.3887H165.908ZM163.618 59.0566L164.265 58.2941C162.511 56.806 160.031 56.1426 156.987 56.1426V57.1426V58.1426C159.777 58.1426 161.717 58.7552 162.971 59.8191L163.618 59.0566ZM156.987 57.1426V56.1426H134.907V57.1426V58.1426H156.987V57.1426ZM134.907 57.1426H133.907V71.5664H134.907H135.907V57.1426H134.907ZM134.907 71.5664V72.5664H156.987V71.5664V70.5664H134.907V71.5664ZM188.364 27.5771V26.5771H187.364V27.5771H188.364ZM199.199 27.5771L199.908 26.8713L199.614 26.5771H199.199V27.5771ZM218.613 47.0596L217.905 47.7654L218.613 48.4763L219.322 47.7654L218.613 47.0596ZM238.027 27.5771V26.5771H237.612L237.319 26.8713L238.027 27.5771ZM248.862 27.5771H249.862V26.5771H248.862V27.5771ZM248.862 81V82H249.862V81H248.862ZM238.027 81H237.027V82H238.027V81ZM238.027 42.582H239.027V40.2307L237.334 41.8617L238.027 42.582ZM218.613 61.2783L217.92 61.9986L218.613 62.6666L219.307 61.9986L218.613 61.2783ZM199.199 42.582L199.893 41.8617L198.199 40.2307V42.582H199.199ZM199.199 81V82H200.199V81H199.199ZM188.364 81H187.364V82H188.364V81ZM188.364 27.5771V28.5771H199.199V27.5771V26.5771H188.364V27.5771ZM199.199 27.5771L198.491 28.283L217.905 47.7654L218.613 47.0596L219.322 46.3537L199.908 26.8713L199.199 27.5771ZM218.613 47.0596L219.322 47.7654L238.736 28.283L238.027 27.5771L237.319 26.8713L217.905 46.3537L218.613 47.0596ZM238.027 27.5771V28.5771H248.862V27.5771V26.5771H238.027V27.5771ZM248.862 27.5771H247.862V81H248.862H249.862V27.5771H248.862ZM248.862 81V80H238.027V81V82H248.862V81ZM238.027 81H239.027V42.582H238.027H237.027V81H238.027ZM238.027 42.582L237.334 41.8617L217.92 60.558L218.613 61.2783L219.307 61.9986L238.721 43.3023L238.027 42.582ZM218.613 61.2783L219.307 60.558L199.893 41.8617L199.199 42.582L198.506 43.3023L217.92 61.9986L218.613 61.2783ZM199.199 42.582H198.199V81H199.199H200.199V42.582H199.199ZM199.199 81V80H188.364V81V82H199.199V81ZM188.364 81H189.364V27.5771H188.364H187.364V81H188.364Z" fill="black" mask="url(#path-6-outside-1_42_319)"/>
</g>
<defs>
<filter id="filter0_d_42_319" x="2.58789" y="26.5771" width="251.274" height="63.4229" filterUnits="userSpaceOnUse" color-interpolation-filters="sRGB">
<feFlood flood-opacity="0" result="BackgroundImageFix"/>
<feColorMatrix in="SourceAlpha" type="matrix" values="0 0 0 0 0 0 0 0 0 0 0 0 0 0 0 0 0 0 127 0" result="hardAlpha"/>
<feOffset dy="4"/>
<feGaussianBlur stdDeviation="2"/>
<feComposite in2="hardAlpha" operator="out"/>
<feColorMatrix type="matrix" values="0 0 0 0 0 0 0 0 0 0 0 0 0 0 0 0 0 0 0.25 0"/>
<feBlend mode="normal" in2="BackgroundImageFix" result="effect1_dropShadow_42_319"/>
<feBlend mode="normal" in="SourceGraphic" in2="effect1_dropShadow_42_319" result="shape"/>
</filter>
<clipPath id="clip0_42_319">
<rect width="30" height="30" fill="white" transform="translate(256)"/>
</clipPath>
</defs>
</svg>
